<svg width="80" height="80" viewBox="0 0 80 80" fill="none" xmlns="http://www.w3.org/2000/svg">
<path d="M62.4072 49.7515C70.7616 48.9 75.7301 44.8445 75.7301 44.8445M43.9072 46.1067C48.2622 48.2089 52.1269 49.2886 55.7541 49.7022M25.8747 37.3873C30.0088 38.4049 33.6437 39.9838 38.1352 42.9211M2.23486 38.2643C2.23486 38.2643 9.94798 34.9843 20.5453 36.3381" stroke="#008000" stroke-width="2.5" stroke-miterlimit="10" stroke-linecap="round" stroke-linejoin="round"/>
<path d="M70.1055 43.7474L76.9695 44.0499L74.307 50.3837M12.9873 31.1181V19.9538L25.7046 6.30176V74.2112L12.9873 60.559V40.9342M31.1799 33.4384V19.9538L43.8971 6.30176V74.2112L31.1799 60.559V44.4136M49.3724 42.397V19.9538L62.0895 6.30176V74.2112L49.3724 60.559V53.6411" stroke="#008000" stroke-width="2.5" stroke-miterlimit="10" stroke-linecap="round" stroke-linejoin="round"/>
</svg>
