<svg width="512" height="512" viewBox="0 0 512 512" fill="none" xmlns="http://www.w3.org/2000/svg">
<rect width="512" height="512" fill="white"/>
<path d="M16 234.129C27.4232 162.361 55.0089 104.808 115.47 60.9516C167.352 24.0037 231.732 8.95912 294.651 19.0796C357.04 29.2724 412.858 63.6844 449.927 114.807C488.018 167.204 503.412 232.689 492.647 296.532C482.664 358.854 445.607 414.783 394.672 451.618C342.968 488.383 278.766 503.169 216.155 492.731C153.986 482.197 98.4528 447.696 61.5284 396.666C33.221 357.497 24.3356 324.974 16 278.849V234.129ZM257.29 172.745C270.712 158.422 282.022 152.416 302.446 151.954C341.451 151.071 381.588 153.064 420.505 151.555C420.35 164.325 420.831 174.754 413.979 186.256C384.328 236.027 293.592 203.002 292.261 276.326C292.212 280.002 292.289 283.677 292.492 287.348C312.824 286.058 339.182 286.785 359.879 286.79L477.177 286.872C490.678 157.605 406.634 46.8329 275.573 33.2791C266.932 32.3353 258.234 32.0016 249.546 32.2803C174.51 36.959 110.354 70.7082 68.8591 134.58C38.626 181.116 30.6027 226.532 34.0626 281.207L34.4717 287.424C49.4328 286.268 66.8043 286.528 81.8766 286.771C128.48 287.518 176.056 285.471 222.53 287.327C221.111 270.235 218.737 248.068 203.595 237.423C158.165 205.488 92.7885 228.828 91.0542 151.427C123.201 153.683 157.618 151.057 189.961 152.005C218.088 152.829 232.662 148.195 253.246 171.854C253.812 172.505 254.374 173.159 254.931 173.817L256.78 173.515L257.29 172.745ZM424.863 368.072C424.77 374.033 424.775 380.396 424.565 386.32C404.186 383.409 384.459 379.558 369.224 364.503C338.906 392.674 286.459 391.94 256.247 364.06C229.307 392.217 171.366 392.574 144.675 363.987C125.971 378.978 110.939 384.482 86.6718 385.827L86.562 368.285C109.404 368.095 119.656 362.181 136.892 347.826C138.307 346.647 145.402 342.411 146.786 343.815C160.921 358.175 168.976 362.852 188.059 368.351C202.076 346.322 213.524 329.176 219.459 303.255L96.1043 303.205C80.3473 303.213 51.487 304.176 37.4715 302.941C49.8484 360.721 84.7515 411.207 134.476 443.253C184.19 475.885 245.027 487.017 303.101 474.108C360.421 461.646 410.508 427.131 442.505 378.047C460.721 349.838 465.011 334.276 474.814 303.325C415.779 302.913 354.24 304.455 295.679 303.155C302.656 326.511 313.979 346.646 328.302 366.175L329.948 366.973C346.975 361.199 350.043 357.145 363.725 346.11C370.526 340.625 381.054 352.702 385.245 356.453C396.758 366.19 410.39 368.161 424.863 368.072ZM108.346 167.522C111.02 174.341 112.955 179.98 118.938 184.766C154.029 212.838 212.627 199.036 232.048 248.444C247.584 287.966 232.344 336.661 207.292 368.934C233.003 362.856 234.615 361.456 253.145 343.618C253.5 343.275 259.059 345.389 259.525 346.058C277.525 358.265 285.851 368.126 309.68 368.252C293.45 344.431 282.11 322.75 276.799 294.108C261.65 180.9 377.09 227.318 403.939 167.836L339.654 167.844C290.17 167.716 288.673 160.419 255.823 198.942C243.217 183.888 234.147 169.298 213.712 168.075C181.005 166.116 140.19 169.932 108.346 167.522Z" fill="#D6AF69"/>
</svg>
