<svg width="18" height="18" viewBox="0 0 18 18" fill="none" xmlns="http://www.w3.org/2000/svg">
<g clip-path="url(#clip0_192_451)">
<mask id="mask0_192_451" style="mask-type:luminance" maskUnits="userSpaceOnUse" x="0" y="0" width="18" height="18">
<path d="M16.9619 16.9612V0.26886H0.269531V16.9612H16.9619Z" fill="white" stroke="white" stroke-width="0.538462"/>
</mask>
<g mask="url(#mask0_192_451)">
<path d="M8.87625 4.68213L6.08565 6.2933C5.60275 6.57209 4.98531 6.40661 4.70649 5.92375C4.42767 5.44085 4.59314 4.82337 5.07604 4.54459L8.61032 2.50406C8.78122 2.40539 8.97173 2.34551 9.16834 2.32864C9.36496 2.31178 9.56288 2.33834 9.74809 2.40646L11.6232 3.09616L13.6634 1.91828L16.7259 7.13673L15.2426 8.35776L8.87625 4.68213Z" stroke="#111111" stroke-width="0.538462" stroke-miterlimit="10" stroke-linecap="round" stroke-linejoin="round"/>
<path d="M13.7731 7.5092L15.8132 8.68709C16.2961 8.96587 16.4616 9.58335 16.1828 10.0662C15.9039 10.5491 15.2865 10.7146 14.8036 10.4358L12.7634 9.25792" stroke="#111111" stroke-width="0.538462" stroke-miterlimit="10" stroke-linecap="round" stroke-linejoin="round"/>
<path d="M12.7633 9.25791L15.3863 10.7723C15.8692 11.0511 16.0347 11.6686 15.7559 12.1515C15.4771 12.6344 14.8596 12.7998 14.3767 12.521L11.7537 11.0066" stroke="#111111" stroke-width="0.538462" stroke-miterlimit="10" stroke-linecap="round" stroke-linejoin="round"/>
<path d="M11.7538 11.0066L13.7939 12.1845C14.2768 12.4633 14.4423 13.0808 14.1635 13.5637C13.8846 14.0466 13.2672 14.212 12.7843 13.9332L10.7441 12.7553" stroke="#111111" stroke-width="0.538462" stroke-miterlimit="10" stroke-linecap="round" stroke-linejoin="round"/>
<path d="M10.744 12.7553L11.9098 13.4284C12.3927 13.7072 12.5581 14.3247 12.2793 14.8075C12.0006 15.2904 11.3831 15.4559 10.9002 15.1771L9.73438 14.504" stroke="#111111" stroke-width="0.538462" stroke-miterlimit="10" stroke-linecap="round" stroke-linejoin="round"/>
<path d="M5.12316 13.7411C4.64023 13.4623 4.47479 12.8448 4.75361 12.3619L5.59496 10.9047C5.87374 10.4218 6.49119 10.2563 6.97412 10.5351C7.45702 10.8139 7.62246 11.4314 7.34364 11.9143L6.50229 13.3715C6.22351 13.8544 5.60606 14.0199 5.12316 13.7411Z" stroke="#111111" stroke-width="0.538462" stroke-miterlimit="10" stroke-linecap="round" stroke-linejoin="round"/>
<path d="M6.87191 14.7507C6.38901 14.4719 6.22357 13.8544 6.50239 13.3715L7.0072 12.4972C7.28599 12.0143 7.90343 11.8488 8.38633 12.1276C8.86923 12.4064 9.0347 13.0239 8.75588 13.5068L8.25108 14.3811C7.97225 14.864 7.35481 15.0295 6.87191 14.7507Z" stroke="#111111" stroke-width="0.538462" stroke-miterlimit="10" stroke-linecap="round" stroke-linejoin="round"/>
<path d="M1.62582 11.7219C1.14292 11.443 0.977478 10.8256 1.2563 10.3427L2.09764 8.88545C2.37643 8.40251 2.99388 8.23707 3.47677 8.51586C3.95967 8.79468 4.12515 9.41216 3.84633 9.89506L3.00498 11.3523C2.72616 11.8352 2.10872 12.0006 1.62582 11.7219Z" stroke="#111111" stroke-width="0.538462" stroke-miterlimit="10" stroke-linecap="round" stroke-linejoin="round"/>
<path d="M3.37461 12.7315C2.89171 12.4527 2.72624 11.8352 3.00509 11.3523L4.18297 9.31211C4.46176 8.82924 5.07921 8.6638 5.56211 8.94259C6.045 9.22138 6.21044 9.83886 5.93162 10.3218L4.75374 12.3619C4.47495 12.8448 3.85751 13.0103 3.37461 12.7315Z" stroke="#111111" stroke-width="0.538462" stroke-miterlimit="10" stroke-linecap="round" stroke-linejoin="round"/>
<path d="M5.84731 4.09924L3.36928 2.66852L0.504639 8.0094L2.07856 8.91812" stroke="#111111" stroke-width="0.538462" stroke-miterlimit="10" stroke-linecap="round" stroke-linejoin="round"/>
<path d="M8.5686 13.831L9.7344 14.504" stroke="#111111" stroke-width="0.538462" stroke-miterlimit="10" stroke-linecap="round" stroke-linejoin="round"/>
</g>
</g>
<defs>
<clipPath id="clip0_192_451">
<rect width="17.2308" height="17.2308" fill="white"/>
</clipPath>
</defs>
</svg>
