<svg width="211" height="52" viewBox="0 0 211 52" fill="none" xmlns="http://www.w3.org/2000/svg">
<g clip-path="url(#clip0_162_4271)">
<path d="M112.851 15.3302C114.919 15.3003 116.979 15.3097 119.074 15.3068C122.893 15.2775 129.823 15.0196 131.372 19.5833C132.801 23.7888 130.98 26.85 127.016 28.3439C128.707 31.192 130.188 34.3177 131.832 37.1977C132.858 37.4769 133.888 37.7482 134.92 38.0114L134.901 39.5768L128.54 39.5683C128.052 38.3516 126.818 36.1997 126.169 35.0244C125.061 32.9612 123.966 30.8907 122.884 28.813L119.865 28.8396C119.849 31.6205 119.854 34.4014 119.881 37.1823C120.968 37.4206 121.886 37.742 123.043 37.9494C123.016 38.4638 123.023 39.0549 123.018 39.5758C119.5 39.5365 115.906 39.5756 112.382 39.5759V37.9977C113.454 37.7129 114.528 37.4408 115.606 37.1813C115.524 30.7948 115.567 24.1065 115.611 17.7137C114.551 17.4865 113.474 17.0449 112.383 16.9566C112.398 16.273 112.071 15.4173 112.851 15.3302ZM119.864 26.8023C122.107 26.8031 124.152 26.9461 126.022 25.4461C127.066 24.4204 127.409 23.5501 127.415 22.0934C127.43 17.8272 123.809 17.5392 120.594 17.5364L119.866 17.5374L119.864 26.8023Z" fill="#FFFFFC"/>
<path d="M60.7455 22.2079L60.8066 22.2379C60.9376 22.4916 60.8727 23.4314 60.8654 23.7733C60.0061 23.9593 59.3547 24.0966 58.527 24.3814C59.6822 26.9125 60.854 30.8746 61.9306 33.6421C62.417 32.5312 62.9818 30.6977 63.3846 29.5066L65.8641 22.2243L68.2825 22.2253C69.7019 25.8283 70.9687 29.8455 72.3434 33.5277C73.3328 30.688 74.6137 27.2222 75.45 24.3849C74.4563 24.2071 73.7514 23.9661 72.6678 23.8206L72.6564 22.2307C75.1559 22.2393 77.6555 22.2288 80.1549 22.1995L80.1356 23.7794C79.2631 23.9667 78.3935 24.168 77.5274 24.3835C77.0239 25.6774 76.5477 27.2508 76.1108 28.5885C74.8777 32.3579 73.6154 36.1175 72.324 39.8673C71.5031 39.8363 70.9806 39.8295 70.1646 39.8928C69.1275 36.7342 67.882 33.6032 66.834 30.4439C66.5741 29.6601 66.2816 28.9466 65.8875 28.2195C64.6031 32.1142 63.2898 35.9992 61.9475 39.8744C61.2115 39.8445 60.5952 39.8066 59.8607 39.8763C58.259 35.8568 56.8829 31.7195 55.3292 27.6798C54.9163 26.6063 54.4909 25.4752 54.15 24.3784C53.4009 24.1456 52.7551 23.9157 51.9725 23.8393L51.9651 22.2321L60.7455 22.2079Z" fill="#FFFFFC"/>
<path d="M87.8714 21.7836C88.3047 21.7591 88.7384 21.7432 89.1723 21.736C91.1293 21.7205 93.2889 22.0182 94.746 23.4559C96.6579 25.3425 96.288 28.4765 96.279 30.941L96.2746 37.29C97.1298 37.2615 98.0542 37.2747 98.9152 37.2709C98.9368 37.6336 98.9116 38.1761 98.9053 38.5532C97.5843 39.6631 95.6315 40.5511 93.9351 39.8333C93.1623 39.5064 92.7595 38.9997 92.2252 38.3906C89.224 40.3841 85.9926 40.8302 82.9269 38.7291L82.9076 38.7109C81.8321 37.678 81.5349 36.8153 81.4915 35.3375C81.3307 29.8655 88.0658 29.2727 92.125 29.2333C92.0696 26.0034 92.5321 23.8921 88.6893 23.3279C87.3944 24.5669 85.9076 25.6926 84.5867 26.9362C83.173 25.9297 82.8448 25.0569 82.4696 23.4192C84.3142 22.4481 85.8204 22.0242 87.8714 21.7836ZM86.9144 37.1996C88.8513 37.9906 90.4549 37.7442 92.1304 36.4764C92.1094 34.9845 92.2077 32.3866 92.0764 31.0647C91.8754 30.9783 91.8223 30.9921 91.6022 31.021C88.9626 31.1665 85.6991 32.0874 85.8672 35.3935C85.9096 36.2262 86.2246 36.7492 86.9144 37.1996Z" fill="#FFFFFC"/>
<path d="M142.636 21.7808C143.103 21.7541 143.571 21.739 144.039 21.7355C145.957 21.7353 148.061 22.0408 149.476 23.4655C150.111 24.1087 150.557 24.9154 150.761 25.796C151.064 27.0518 150.986 29.5768 150.983 30.9357L150.974 37.2701L153.673 37.2567L153.657 38.5153C151.508 40.117 148.854 41.1967 147.031 38.3755C143.76 40.3608 140.881 40.9132 137.576 38.6599C136.64 37.6746 136.213 36.682 136.201 35.3125C136.154 29.8985 142.794 29.2474 146.836 29.2348C146.869 26.1639 147.157 23.6966 143.393 23.3583C142.354 24.3943 140.419 25.9447 139.249 26.9419C137.884 25.703 137.621 25.1531 137.17 23.4164C139.219 22.4399 140.37 22.0452 142.636 21.7808ZM141.586 37.1599C143.529 37.9473 145.137 37.8307 146.823 36.4757C146.829 35.7718 146.955 31.3195 146.725 31.0261L146.491 31.0178C143.858 31.1348 140.456 32.0308 140.58 35.3192C140.611 36.1495 140.934 36.683 141.586 37.1599Z" fill="#FFFFFC"/>
<path d="M166.76 22.2437C168.865 22.1892 170.998 22.2701 173.104 22.1859C173.187 26.0739 173.118 30.1963 173.119 34.1026C173.122 35.1587 173.115 36.2148 173.097 37.2708L175.9 37.258C175.877 37.6086 175.893 38.1363 175.893 38.5012C173.442 40.1363 170.473 41.3883 169.021 37.8006C165.706 40.5397 159.272 41.7719 157.698 36.2041C157.323 34.8756 157.477 32.5368 157.479 31.0759L157.491 24.3567C156.806 24.3073 155.476 23.9423 154.597 23.8204L154.573 22.2334C156.895 22.2101 159.217 22.2107 161.54 22.2348C161.846 22.6225 161.475 33.1243 161.664 34.611C162.267 39.3748 166.477 37.7266 169.03 35.9429C168.863 32.4314 169.009 27.9879 169.004 24.3943C168.264 24.2233 167.618 23.9765 166.809 23.8108L166.76 22.2437Z" fill="#FFFFFC"/>
<path d="M106.104 11.8429L107.193 11.815L107.188 37.3585C108.098 37.6178 109.207 37.8444 110.142 38.06L110.138 39.5791C107.203 39.5208 104.089 39.5726 101.139 39.571C100.83 39.5869 100.534 39.6275 100.244 39.5228C99.9441 39.1443 100.054 38.6324 100.072 38.0921C100.997 37.8315 102.097 37.6056 103.054 37.3553C102.934 34.8623 103.012 31.7307 103.012 29.1882L103.026 14.6727L100.053 14.6801C100.083 14.072 100.063 13.7962 100.004 13.2032C100.969 12.9111 105.255 11.8841 106.104 11.8429Z" fill="#FFFFFC"/>
<path d="M0 24.1188C0.960563 18.0789 3.2802 13.2353 8.36428 9.54434C12.727 6.43484 18.1406 5.16871 23.4314 6.02044C28.6776 6.87826 33.3712 9.77433 36.4883 14.0767C39.6913 18.4865 40.9857 23.9975 40.0806 29.3706C39.2412 34.6155 36.125 39.3225 31.842 42.4225C27.4943 45.5165 22.0957 46.7609 16.8308 45.8825C11.603 44.9959 6.93334 42.0923 3.82842 37.7978C1.44809 34.5013 0.700933 31.7642 0 27.8824V24.1188ZM20.2898 18.9527C21.4183 17.7474 22.3694 17.2419 24.0868 17.203C27.3667 17.1287 30.7418 17.2964 34.0142 17.1694C34.0012 18.2441 34.0416 19.1219 33.4655 20.0899C30.9722 24.2785 23.3423 21.4992 23.2304 27.6701C23.2263 27.9794 23.2327 28.2887 23.2498 28.5976C24.9595 28.489 27.1759 28.5503 28.9163 28.5507L38.7797 28.5575C39.915 17.6786 32.8479 8.35612 21.8271 7.21546C21.1005 7.13602 20.3691 7.10794 19.6385 7.13139C13.3288 7.52515 7.93412 10.3654 4.44485 15.7408C1.90259 19.6572 1.22792 23.4794 1.51886 28.0808L1.55326 28.604C2.81132 28.5068 4.27206 28.5286 5.53947 28.549C9.45831 28.6119 13.4589 28.4397 17.3668 28.5959C17.2475 27.1574 17.0479 25.2919 15.7746 24.396C11.9544 21.7084 6.45704 23.6726 6.3112 17.1587C9.01442 17.3485 11.9084 17.1275 14.6281 17.2073C16.9933 17.2766 18.2188 16.8867 19.9497 18.8778C19.9973 18.9325 20.0445 18.9876 20.0913 19.043L20.2469 19.0175L20.2898 18.9527ZM34.3807 35.3913C34.3729 35.8929 34.3733 36.4284 34.3557 36.927C32.642 36.6821 30.9832 36.358 29.7021 35.0909C27.1527 37.4618 22.7425 37.4 20.202 35.0537C17.9366 37.4233 13.0645 37.4533 10.8201 35.0475C9.24733 36.3091 7.98326 36.7723 5.94269 36.8855L5.93345 35.4092C7.85418 35.3932 8.71628 34.8955 10.1657 33.6874C10.2846 33.5882 10.8813 33.2317 10.9976 33.3499C12.1862 34.5584 12.8635 34.952 14.4682 35.4148C15.6469 33.5608 16.6095 32.1179 17.1085 29.9363L6.73586 29.9321C5.41088 29.9328 2.98406 30.0139 1.80551 29.91C2.84626 34.7726 5.78122 39.0214 9.96246 41.7185C14.1429 44.4647 19.2585 45.4015 24.142 44.3152C28.9618 43.2664 33.1736 40.3617 35.8642 36.2308C37.396 33.8567 37.7567 32.5471 38.581 29.9423C33.6169 29.9076 28.4421 30.0373 23.5178 29.9279C24.1045 31.8935 25.0566 33.5881 26.261 35.2316L26.3994 35.2988C27.8312 34.8128 28.0892 34.4717 29.2397 33.543C29.8116 33.0813 30.6969 34.0978 31.0493 34.4134C32.0174 35.2329 33.1637 35.3988 34.3807 35.3913ZM7.76522 18.5132C7.99014 19.0871 8.1528 19.5617 8.6559 19.9644C11.6066 22.327 16.5341 21.1653 18.1672 25.3235C19.4736 28.6497 18.1921 32.7478 16.0855 35.4638C18.2475 34.9523 18.383 34.8345 19.9412 33.3332C19.971 33.3044 20.4385 33.4823 20.4776 33.5386C21.9913 34.566 22.6914 35.3958 24.6951 35.4065C23.3304 33.4017 22.3768 31.577 21.9302 29.1666C20.6563 19.6391 30.3636 23.5455 32.6212 18.5396L27.2156 18.5403C23.0545 18.5295 22.9287 17.9154 20.1664 21.1574C19.1064 19.8906 18.3437 18.6627 16.6254 18.5597C13.8751 18.3949 10.4429 18.716 7.76522 18.5132Z" fill="#FFFFFC"/>
<path d="M195.339 24.3448C198.778 21.3753 205.284 19.7992 207.127 25.7667C207.508 26.9991 207.346 29.3292 207.342 30.7117C207.319 32.9284 207.325 35.1454 207.36 37.3619C208.251 37.6394 209.316 37.8628 210.234 38.0637V39.5645C207.199 39.6253 203.976 39.5726 200.925 39.5758L200.978 38.0552L203.213 37.3468C203.097 35.0071 203.195 32.5652 203.186 30.1781C203.177 27.6839 203.605 24.0204 199.862 24.2531C198.406 24.3438 197.149 25.0444 195.964 25.8639C196.194 27.617 196.147 29.359 196.145 31.124L196.153 37.4327C196.824 37.5884 197.737 37.897 198.415 38.1049L198.421 39.5585C195.628 39.6412 192.488 39.5736 189.668 39.5766L189.696 38.0566C190.49 37.8221 191.188 37.6073 191.965 37.3247C191.87 35.0407 192.004 32.7306 191.95 30.4084C191.886 28.8004 192.214 26.3577 191.105 25.0545C190.226 24.0209 188.08 24.1843 186.925 24.6481C186.216 24.9321 184.9 25.2966 184.841 26.1949C184.759 27.4246 184.794 28.6699 184.797 29.9003C184.813 32.3781 184.809 34.856 184.785 37.3338C185.346 37.5724 186.442 37.8838 187.059 38.078L187.062 39.5662L177.755 39.5728L177.778 38.0655C178.773 37.8511 179.762 37.6077 180.741 37.3356C180.681 34.1845 180.752 31.015 180.72 27.8622C180.711 26.9407 180.708 25.9965 180.764 25.0776C179.849 25.0238 178.697 25.0578 177.765 25.0611L177.768 23.5806C179.457 23.0365 183.076 22.2071 184.8 22.1987C184.815 22.7887 184.82 23.2664 184.793 23.859C187.555 21.2873 193.22 20.564 195.339 24.3448Z" fill="#FFFFFC"/>
</g>
<defs>
<clipPath id="clip0_162_4271">
<rect width="210.234" height="52" fill="white"/>
</clipPath>
</defs>
</svg>
