<svg width="80" height="80" viewBox="0 0 80 80" fill="none" xmlns="http://www.w3.org/2000/svg">
<path d="M40.0029 12.1637C24.7331 12.1637 12.3544 24.9774 12.3544 40.2472C12.3544 55.5171 24.7333 67.8956 40.0029 67.8956C55.2726 67.8956 67.6513 55.5171 67.6513 40.2472C67.6513 24.9774 55.2728 12.1637 40.0029 12.1637ZM40.0029 12.1637L40.0001 2.34204M40.0029 67.8958L40.0001 77.6583M52.3536 65.0569L56.7461 73.9291M61.9816 57.0583L70.1754 63.4796M67.0179 45.9489L77.6282 48.38M66.9403 33.9679L77.6282 31.6205M61.7737 23.0363L70.1754 16.5207M52.3536 15.139L56.7461 6.07141M27.7195 15.1204L23.254 6.07141M18.2236 23.0542L9.82471 16.5207M13.0585 34.0025L2.37207 31.6205M12.958 46.0228L2.37207 48.38M18.0639 57.0744L9.82471 63.4796M27.6644 64.9929L23.254 73.9291" stroke="#008000" stroke-width="2.5" stroke-miterlimit="10" stroke-linecap="round" stroke-linejoin="round"/>
<path d="M47.5124 24.7756H33.3189L27.4634 43.8758H37.3669L37.9853 56.4232L52.5324 35.8775H41.6691L47.5124 24.7756Z" stroke="#008000" stroke-width="2.5" stroke-miterlimit="10" stroke-linecap="round" stroke-linejoin="round"/>
</svg>
