<svg width="80" height="80" viewBox="0 0 80 80" fill="none" xmlns="http://www.w3.org/2000/svg">
<path d="M54.4625 35.5638C54.6222 35.6023 54.788 35.609 54.9503 35.5834C55.1126 35.5578 55.2683 35.5005 55.4084 35.4147C55.5485 35.3289 55.6704 35.2163 55.767 35.0834C55.8635 34.9505 55.933 34.7998 55.9713 34.64C56.6137 31.9832 56.5833 29.2081 55.8827 26.5661C55.182 23.924 53.8334 21.4985 51.9588 19.5092C50.0842 17.5199 47.743 16.0297 45.1472 15.1735C42.5514 14.3173 39.783 14.1222 37.0927 14.6059C34.4025 15.0896 31.8754 16.2368 29.7404 17.9435C27.6054 19.6503 25.9299 21.8627 24.8657 24.3804C23.8015 26.8981 23.3821 29.6415 23.6457 32.3621C23.9092 35.0828 24.8473 37.6947 26.375 39.9613C26.4647 40.1024 26.5817 40.224 26.7192 40.3191C26.8567 40.4141 27.0119 40.4807 27.1755 40.5147C27.3392 40.5487 27.508 40.5496 27.672 40.5172C27.836 40.4849 27.9918 40.4199 28.1303 40.3263C28.2688 40.2326 28.387 40.1122 28.4781 39.972C28.5692 39.8319 28.6313 39.6749 28.6606 39.5103C28.69 39.3457 28.686 39.177 28.649 39.0139C28.6119 38.8509 28.5426 38.697 28.445 38.5613C27.2296 36.7556 26.4543 34.6902 26.1813 32.5308C25.9083 30.3713 26.1451 28.178 26.8729 26.1266C27.6006 24.0752 28.799 22.223 30.3719 20.7184C31.9448 19.2138 33.8484 18.0988 35.93 17.4628C38.0116 16.8268 40.2133 16.6875 42.3585 17.056C44.5037 17.4246 46.5327 18.2908 48.2827 19.5851C50.0327 20.8794 51.455 22.5658 52.4355 24.5091C53.416 26.4524 53.9274 28.5984 53.9288 30.775C53.9289 31.8803 53.7984 32.9817 53.54 34.0563C53.4625 34.3785 53.5162 34.7183 53.6891 35.001C53.8621 35.2837 54.1403 35.4861 54.4625 35.5638ZM41.25 10.3375V3.75879C41.25 3.42727 41.1183 3.10933 40.8839 2.87491C40.6495 2.64049 40.3315 2.50879 40 2.50879C39.6685 2.50879 39.3505 2.64049 39.1161 2.87491C38.8817 3.10933 38.75 3.42727 38.75 3.75879V10.3375C38.75 10.6691 38.8817 10.987 39.1161 11.2214C39.3505 11.4558 39.6685 11.5875 40 11.5875C40.3315 11.5875 40.6495 11.4558 40.8839 11.2214C41.1183 10.987 41.25 10.6691 41.25 10.3375ZM60.4388 32.025H67.0163C67.3478 32.025 67.6657 31.8933 67.9001 31.6589C68.1346 31.4245 68.2663 31.1066 68.2663 30.775C68.2663 30.4435 68.1346 30.1256 67.9001 29.8912C67.6657 29.6567 67.3478 29.525 67.0163 29.525H60.4388C60.1072 29.525 59.7893 29.6567 59.5549 29.8912C59.3205 30.1256 59.1888 30.4435 59.1888 30.775C59.1888 31.1066 59.3205 31.4245 59.5549 31.6589C59.7893 31.8933 60.1072 32.025 60.4388 32.025ZM12.9838 29.525C12.6522 29.525 12.3343 29.6567 12.0999 29.8912C11.8655 30.1256 11.7338 30.4435 11.7338 30.775C11.7338 31.1066 11.8655 31.4245 12.0999 31.6589C12.3343 31.8933 12.6522 32.025 12.9838 32.025H19.5613C19.8928 32.025 20.2107 31.8933 20.4451 31.6589C20.6796 31.4245 20.8113 31.1066 20.8113 30.775C20.8113 30.4435 20.6796 30.1256 20.4451 29.8912C20.2107 29.6567 19.8928 29.525 19.5613 29.525H12.9838Z" fill="#008000"/>
<path d="M59.9876 10.7875C59.7532 10.5532 59.4353 10.4215 59.1038 10.4215C58.7724 10.4215 58.4545 10.5532 58.2201 10.7875L53.5676 15.44C53.3332 15.6745 53.2016 15.9926 53.2017 16.3242C53.2018 16.6558 53.3336 16.9737 53.5682 17.2081C53.8027 17.4425 54.1208 17.5741 54.4524 17.574C54.784 17.5739 55.1019 17.442 55.3363 17.2075L59.9876 12.555C60.2219 12.3206 60.3535 12.0027 60.3535 11.6712C60.3535 11.3398 60.2219 11.0219 59.9876 10.7875ZM25.5476 17.5737C25.7949 17.5739 26.0367 17.5008 26.2424 17.3635C26.4481 17.2263 26.6084 17.0311 26.7032 16.8026C26.7979 16.5742 26.8228 16.3228 26.7746 16.0803C26.7264 15.8377 26.6074 15.6149 26.4326 15.44L21.7801 10.7875C21.6648 10.6681 21.5268 10.5729 21.3743 10.5074C21.2218 10.4419 21.0578 10.4074 20.8918 10.4059C20.7258 10.4045 20.5612 10.4361 20.4076 10.499C20.254 10.5618 20.1144 10.6546 19.9971 10.772C19.8797 10.8894 19.7869 11.0289 19.724 11.1826C19.6612 11.3362 19.6296 11.5008 19.631 11.6667C19.6324 11.8327 19.6669 11.9967 19.7324 12.1492C19.7979 12.3018 19.8932 12.4397 20.0126 12.555L24.6638 17.2075C24.8982 17.4419 25.2161 17.5737 25.5476 17.5737ZM73.2351 38.7862C73.1882 38.6935 73.1298 38.607 73.0613 38.5287C73.0341 38.4945 73.0049 38.4619 72.9738 38.4312C72.8762 38.3396 72.7643 38.2644 72.6426 38.2087C72.6313 38.2087 72.6238 38.195 72.6126 38.19C72.4753 38.135 72.3291 38.1058 72.1813 38.1037C72.1638 38.1037 72.1501 38.0937 72.1326 38.0937H62.1826C61.851 38.0937 61.5331 38.2254 61.2987 38.4599C61.0643 38.6943 60.9326 39.0122 60.9326 39.3437C60.9326 39.6753 61.0643 39.9932 61.2987 40.2276C61.5331 40.462 61.851 40.5937 62.1826 40.5937H69.1013L48.0788 61.5088L39.2913 53.53L50.5276 42.35V49.74C50.5276 50.0715 50.6593 50.3895 50.8937 50.6239C51.1281 50.8583 51.446 50.99 51.7776 50.99C52.1091 50.99 52.427 50.8583 52.6614 50.6239C52.8959 50.3895 53.0276 50.0715 53.0276 49.74V39.3425C53.0247 39.193 52.9951 39.0453 52.9401 38.9062C52.9229 38.8657 52.9037 38.8261 52.8826 38.7875C52.8357 38.6936 52.7769 38.6063 52.7076 38.5275C52.6805 38.4939 52.6517 38.4618 52.6213 38.4312C52.5234 38.3396 52.4116 38.2641 52.2901 38.2075C52.2796 38.2024 52.2696 38.1966 52.2601 38.19C52.1228 38.135 51.9766 38.1058 51.8288 38.1037C51.8113 38.1037 51.7976 38.0937 51.7801 38.0937H41.8301C41.4985 38.0937 41.1806 38.2254 40.9462 38.4599C40.7118 38.6943 40.5801 39.0122 40.5801 39.3437C40.5801 39.6753 40.7118 39.9932 40.9462 40.2276C41.1806 40.462 41.4985 40.5937 41.8301 40.5937H48.7501L37.4388 51.8437L29.0638 44.24C28.9433 44.1241 28.8008 44.0336 28.6447 43.9738C28.4887 43.914 28.3222 43.8861 28.1551 43.8917C27.988 43.8974 27.8238 43.9365 27.6721 44.0067C27.5204 44.0769 27.3844 44.1769 27.272 44.3006C27.1596 44.4244 27.0732 44.5694 27.0179 44.7272C26.9625 44.8849 26.9394 45.0521 26.9498 45.2189C26.9602 45.3858 27.004 45.5488 27.0786 45.6984C27.1531 45.8481 27.2569 45.9812 27.3838 46.09L35.6651 53.61L27.7288 61.5063L8.71006 44.2425C8.58958 44.1266 8.44707 44.0361 8.29099 43.9763C8.1349 43.9165 7.9684 43.8885 7.80134 43.8942C7.63428 43.8999 7.47005 43.939 7.31836 44.0092C7.16668 44.0795 7.03063 44.1794 6.91825 44.3031C6.80587 44.4269 6.71946 44.5719 6.66412 44.7297C6.60878 44.8874 6.58564 45.0546 6.59606 45.2214C6.60649 45.3883 6.65027 45.5513 6.72481 45.7009C6.79936 45.8506 6.90316 45.9837 7.03006 46.0925L26.9263 64.1587C27.1637 64.3739 27.4746 64.4898 27.7949 64.4823C28.1152 64.4749 28.4204 64.3447 28.6476 64.1187L37.5226 55.295L47.2838 64.1587C47.5201 64.3733 47.8295 64.4893 48.1486 64.4831C48.4678 64.4768 48.7724 64.3487 49.0001 64.125L70.8751 42.35V49.74C70.8751 50.0715 71.0068 50.3895 71.2412 50.6239C71.4756 50.8583 71.7935 50.99 72.1251 50.99C72.4566 50.99 72.7745 50.8583 73.0089 50.6239C73.2434 50.3895 73.3751 50.0715 73.3751 49.74V39.3425C73.3721 39.1934 73.3424 39.0461 73.2876 38.9075C73.2723 38.8661 73.2548 38.8257 73.2351 38.7862ZM72.1251 67.9287H7.87506C7.54354 67.9287 7.2256 68.0604 6.99118 68.2949C6.75676 68.5293 6.62506 68.8472 6.62506 69.1787C6.62506 69.5103 6.75676 69.8282 6.99118 70.0626C7.2256 70.2971 7.54354 70.4287 7.87506 70.4287H72.1251C72.4566 70.4287 72.7745 70.2971 73.0089 70.0626C73.2434 69.8282 73.3751 69.5103 73.3751 69.1787C73.3751 68.8472 73.2434 68.5293 73.0089 68.2949C72.7745 68.0604 72.4566 67.9287 72.1251 67.9287ZM72.1251 74.9912H7.87506C7.54354 74.9912 7.2256 75.1229 6.99118 75.3574C6.75676 75.5918 6.62506 75.9097 6.62506 76.2412C6.62506 76.5728 6.75676 76.8907 6.99118 77.1251C7.2256 77.3596 7.54354 77.4912 7.87506 77.4912H72.1251C72.4566 77.4912 72.7745 77.3596 73.0089 77.1251C73.2434 76.8907 73.3751 76.5728 73.3751 76.2412C73.3751 75.9097 73.2434 75.5918 73.0089 75.3574C72.7745 75.1229 72.4566 74.9912 72.1251 74.9912ZM29.5251 30.775C29.5251 31.1065 29.6568 31.4245 29.8912 31.6589C30.1256 31.8933 30.4435 32.025 30.7751 32.025C31.1066 32.025 31.4245 31.8933 31.6589 31.6589C31.8934 31.4245 32.0251 31.1065 32.0251 30.775C32.0277 28.6608 32.8688 26.634 34.3639 25.1392C35.8589 23.6444 37.8859 22.8036 40.0001 22.8012C40.3316 22.8012 40.6495 22.6695 40.8839 22.4351C41.1184 22.2007 41.2501 21.8828 41.2501 21.5512C41.2501 21.2197 41.1184 20.9018 40.8839 20.6674C40.6495 20.4329 40.3316 20.3012 40.0001 20.3012C37.223 20.3042 34.5606 21.4086 32.5968 23.3721C30.6331 25.3357 29.5284 27.998 29.5251 30.775Z" fill="#008000"/>
</svg>
