<svg width="80" height="80" viewBox="0 0 80 80" fill="none" xmlns="http://www.w3.org/2000/svg">
<g clip-path="url(#clip0_45_134)">
<mask id="mask0_45_134" style="mask-type:luminance" maskUnits="userSpaceOnUse" x="0" y="0" width="80" height="80">
<path d="M78.75 1.25V78.75H1.25V1.25H78.75Z" fill="white" stroke="black" stroke-width="2.5"/>
<path d="M63.4375 47.4999C63.6096 47.4999 63.75 47.3595 63.75 47.1874C63.75 47.0152 63.6096 46.8749 63.4375 46.8749C63.2654 46.8749 63.125 47.0152 63.125 47.1874C63.125 47.3595 63.2654 47.4999 63.4375 47.4999Z" fill="white" stroke="black" stroke-width="2.5"/>
</mask>
<g mask="url(#mask0_45_134)">
<path d="M63.4374 47.5002C63.6095 47.5002 63.7499 47.3599 63.7499 47.1877C63.7499 47.0156 63.6095 46.8752 63.4374 46.8752C63.2652 46.8752 63.1249 47.0156 63.1249 47.1877C63.1249 47.3599 63.2652 47.5002 63.4374 47.5002Z" fill="#008000" stroke="#008000" stroke-width="2.5"/>
<path d="M14.2187 45.6252C12.0609 45.6252 10.3125 43.8768 10.3125 41.719C10.3125 40.6409 10.75 39.6628 11.4562 38.9565C11.8187 38.5934 12.2494 38.3054 12.7234 38.1092C13.1975 37.9129 13.7057 37.8122 14.2187 37.8128H22.0312C24.189 37.8128 25.9375 39.5612 25.9375 41.719C25.9375 42.7971 25.5 43.7752 24.7937 44.4815C24.4312 44.8446 24.0006 45.1326 23.5265 45.3288C23.0525 45.5251 22.5443 45.6258 22.0312 45.6252" stroke="#008000" stroke-width="2.5" stroke-miterlimit="10" stroke-linecap="round" stroke-linejoin="round"/>
<path d="M14.2187 53.4377C12.0609 53.4377 10.3125 51.6893 10.3125 49.5315C10.3125 48.4534 10.75 47.4753 11.4562 46.769C11.8187 46.4059 12.2494 46.1179 12.7234 45.9217C13.1975 45.7254 13.7057 45.6247 14.2187 45.6253H22.0312C24.189 45.6253 25.9375 47.3737 25.9375 49.5315C25.9375 50.6096 25.5 51.5877 24.7937 52.294C24.4312 52.6571 24.0006 52.9451 23.5265 53.1413C23.0525 53.3376 22.5443 53.4383 22.0312 53.4377" stroke="#008000" stroke-width="2.5" stroke-miterlimit="10" stroke-linecap="round" stroke-linejoin="round"/>
<path d="M14.2187 61.2502C12.0609 61.2502 10.3125 59.5018 10.3125 57.344C10.3125 56.2659 10.75 55.2878 11.4562 54.5815C11.8187 54.2184 12.2494 53.9304 12.7234 53.7342C13.1975 53.5379 13.7057 53.4372 14.2187 53.4378H22.0312C24.189 53.4378 25.9375 55.1862 25.9375 57.344C25.9375 58.4221 25.5 59.4002 24.7937 60.1065C24.4312 60.4696 24.0006 60.7576 23.5265 60.9538C23.0525 61.1501 22.5443 61.2508 22.0312 61.2502" stroke="#008000" stroke-width="2.5" stroke-miterlimit="10" stroke-linecap="round" stroke-linejoin="round"/>
<path d="M22.0312 61.2503C24.189 61.2503 25.9375 62.9987 25.9375 65.1565C25.9375 66.2346 25.5 67.2127 24.7937 67.919C24.4312 68.2821 24.0006 68.5701 23.5265 68.7663C23.0525 68.9626 22.5443 69.0633 22.0312 69.0627H14.2187C12.0609 69.0627 10.3125 67.3143 10.3125 65.1565C10.3125 64.0784 10.75 63.1003 11.4562 62.394C11.8187 62.0309 12.2494 61.7429 12.7234 61.5467C13.1975 61.3504 13.7057 61.2497 14.2187 61.2503H22.0312Z" stroke="#008000" stroke-width="2.5" stroke-miterlimit="10" stroke-linecap="round" stroke-linejoin="round"/>
<path d="M36.8891 37.2648V26.5593C40.6947 24.1661 43.2002 20.0885 43.2002 15.4623C43.2002 10.2222 39.9862 5.78435 35.3113 3.60025V15.4623H22.6891V3.60025C18.0046 5.7888 14.8002 10.2326 14.8002 15.4623C14.8002 20.0885 17.3057 24.1661 21.1113 26.5593V38.0002" stroke="#008000" stroke-width="2.5" stroke-miterlimit="10" stroke-linecap="round" stroke-linejoin="round"/>
<path d="M36.8001 47.6003V69.3921C36.8001 73.4829 33.3072 76.8003 29.0001 76.8003C26.8473 76.8003 24.8973 75.9706 23.4855 74.6297C22.0737 73.2888 21.2001 71.4368 21.2001 69.3921V69.2003" stroke="#008000" stroke-width="2.5" stroke-miterlimit="10" stroke-linecap="round" stroke-linejoin="round"/>
<path d="M54.978 41.8535C55.5436 41.2878 56.3249 40.9378 57.1874 40.9378H69.6873V72.1877H57.1874C55.4608 72.1877 54.0624 70.7893 54.0624 69.0628V44.0628C54.0624 43.2003 54.4124 42.4191 54.978 41.8535Z" stroke="#008000" stroke-width="2.5" stroke-miterlimit="10" stroke-linecap="round" stroke-linejoin="round"/>
<path d="M54.0624 69.0627H36.875" stroke="#008000" stroke-width="2.5" stroke-miterlimit="10" stroke-linecap="round" stroke-linejoin="round"/>
<path d="M54.978 41.8534L47.9171 34.7925C45.453 32.3284 41.4577 32.3425 39.0296 34.8425C38.4233 35.4659 34.2921 39.6175 32.5498 41.3003C31.0249 42.8268 31.0249 45.2987 32.5498 46.8252C32.9123 47.1883 33.343 47.4763 33.817 47.6726C34.2911 47.8688 34.7993 47.9696 35.3124 47.969C35.8452 47.969 36.3779 47.8612 36.8749 47.6424C37.3108 47.4549 37.7186 47.1815 38.0747 46.8252L41.5624 43.3362" stroke="#008000" stroke-width="2.5" stroke-miterlimit="10" stroke-linecap="round" stroke-linejoin="round"/>
<path d="M63.4374 72.1877V53.4378" stroke="#008000" stroke-width="2.5" stroke-miterlimit="10" stroke-linecap="round" stroke-linejoin="round"/>
<path d="M15 15.2003H22.8125" stroke="#008000" stroke-width="2.5" stroke-miterlimit="10" stroke-linecap="round" stroke-linejoin="round"/>
<path d="M35.3125 15.2003H43.125" stroke="#008000" stroke-width="2.5" stroke-miterlimit="10" stroke-linecap="round" stroke-linejoin="round"/>
<path d="M25.9375 20.313H32.1875" stroke="#008000" stroke-width="2.5" stroke-miterlimit="10" stroke-linecap="round" stroke-linejoin="round"/>
</g>
</g>
<defs>
<clipPath id="clip0_45_134">
<rect width="80" height="80" fill="white"/>
</clipPath>
</defs>
</svg>
