<svg width="80" height="80" viewBox="0 0 80 80" fill="none" xmlns="http://www.w3.org/2000/svg">
<g clip-path="url(#clip0_115_1916)">
<mask id="mask0_115_1916" style="mask-type:luminance" maskUnits="userSpaceOnUse" x="0" y="0" width="80" height="80">
<path d="M78.75 78.75V1.25H1.25V78.75H78.75Z" fill="white" stroke="white" stroke-width="2.5"/>
</mask>
<g mask="url(#mask0_115_1916)">
<path d="M65.1014 27.4481C63.783 27.4482 62.4775 27.1885 61.2595 26.684C60.0415 26.1796 58.9347 25.4401 58.0025 24.5078C57.0703 23.5756 56.3308 22.4689 55.8263 21.2508C55.3219 20.0328 55.0623 18.7273 55.0623 17.4089V17.4039C55.0623 15.4264 54.6728 13.4682 53.916 11.6413C53.1592 9.81428 52.0499 8.15426 50.6516 6.75599C49.2533 5.35719 47.5931 4.24759 45.7659 3.49056C43.9387 2.73353 41.9802 2.34391 40.0024 2.34397H39.9972C35.0525 2.34402 30.1563 3.31809 25.5881 5.21054C21.0199 7.103 16.8692 9.87677 13.3731 13.3735C9.87638 16.8696 7.10262 21.0203 5.21019 25.5885C3.31776 30.1567 2.34374 35.0529 2.34375 39.9976V40.0001C2.34397 49.9874 6.31129 59.5656 13.3731 66.628C20.4352 73.6895 30.0131 77.6564 39.9999 77.6562C60.7973 77.6562 77.656 60.7975 77.656 40.0001C77.656 33.0689 72.0365 27.4481 65.104 27.4481H65.1014Z" stroke="#008000" stroke-width="2.5" stroke-miterlimit="10" stroke-linecap="round" stroke-linejoin="round"/>
<path d="M39.9998 57.5731C42.7712 57.5731 45.0207 59.8235 45.0207 62.5938C45.0207 65.3654 42.7712 67.6147 39.9998 67.6147C37.2296 67.6147 34.979 65.3654 34.979 62.5938C34.979 59.8235 37.2296 57.5731 39.9998 57.5731Z" stroke="#008000" stroke-width="2.5" stroke-miterlimit="10" stroke-linecap="round" stroke-linejoin="round"/>
<path d="M39.9998 12.3858C42.7712 12.3858 45.0207 14.6364 45.0207 17.4067C45.0207 20.1781 42.7712 22.4275 39.9998 22.4275C37.2296 22.4275 34.979 20.1781 34.979 17.4067C34.979 14.6364 37.2296 12.3858 39.9998 12.3858Z" stroke="#008000" stroke-width="2.5" stroke-miterlimit="10" stroke-linecap="round" stroke-linejoin="round"/>
<path d="M59.5672 46.2762C62.3386 46.2762 64.5881 48.5266 64.5881 51.2969C64.5881 54.0685 62.3386 56.3179 59.5672 56.3179C56.7958 56.3179 54.5464 54.0685 54.5464 51.2969C54.5464 48.5266 56.7958 46.2762 59.5672 46.2762Z" stroke="#008000" stroke-width="2.5" stroke-miterlimit="10" stroke-linecap="round" stroke-linejoin="round"/>
<path d="M20.4334 23.6822C23.2049 23.6822 25.4541 25.9328 25.4541 28.7031C25.4541 31.4745 23.2049 33.7239 20.4334 33.7239C17.6618 33.7239 15.4126 31.4745 15.4126 28.7031C15.4126 25.9328 17.6618 23.6822 20.4334 23.6822Z" stroke="#008000" stroke-width="2.5" stroke-miterlimit="10" stroke-linecap="round" stroke-linejoin="round"/>
<path d="M20.4334 46.2762C23.2049 46.2762 25.4541 48.5266 25.4541 51.2969C25.4541 54.0685 23.2049 56.3179 20.4334 56.3179C17.6618 56.3179 15.4126 54.0685 15.4126 51.2969C15.4126 48.5266 17.6618 46.2762 20.4334 46.2762Z" stroke="#008000" stroke-width="2.5" stroke-miterlimit="10" stroke-linecap="round" stroke-linejoin="round"/>
</g>
</g>
<defs>
<clipPath id="clip0_115_1916">
<rect width="80" height="80" fill="white"/>
</clipPath>
</defs>
</svg>
