<svg width="80" height="80" viewBox="0 0 80 80" fill="none" xmlns="http://www.w3.org/2000/svg">
<g clip-path="url(#clip0_162_3596)">
<mask id="mask0_162_3596" style="mask-type:luminance" maskUnits="userSpaceOnUse" x="0" y="0" width="80" height="80">
<path d="M78.75 78.75V1.25H1.25V78.75H78.75Z" fill="white" stroke="white" stroke-width="2.5"/>
</mask>
<g mask="url(#mask0_162_3596)">
<path d="M37.7444 19.6357C35.4182 15.9617 31.3176 13.5225 26.6474 13.5225C19.3987 13.5225 13.5225 19.3987 13.5225 26.6474C13.5225 29.5343 14.4543 32.2033 16.0339 34.3704" stroke="#008000" stroke-width="2.5" stroke-miterlimit="10" stroke-linecap="round" stroke-linejoin="round"/>
<path d="M1.5625 26.6475H6.57483" stroke="#008000" stroke-width="2.5" stroke-miterlimit="10" stroke-linecap="round" stroke-linejoin="round"/>
<path d="M8.90967 8.90989L12.4539 12.4541" stroke="#008000" stroke-width="2.5" stroke-miterlimit="10" stroke-linecap="round" stroke-linejoin="round"/>
<path d="M26.6475 1.56262V6.57495" stroke="#008000" stroke-width="2.5" stroke-miterlimit="10" stroke-linecap="round" stroke-linejoin="round"/>
<path d="M44.385 8.90989L40.8408 12.4541" stroke="#008000" stroke-width="2.5" stroke-miterlimit="10" stroke-linecap="round" stroke-linejoin="round"/>
<path d="M49.6215 18.8557C48.1118 18.3679 46.5013 18.1043 44.8291 18.1043C36.5879 18.1043 29.8431 24.5069 29.2951 32.6092C27.7523 31.956 26.0558 31.5944 24.2748 31.5944C17.1594 31.5944 11.3911 37.3627 11.3911 44.4781C11.3911 51.5936 17.1594 57.3618 24.2748 57.3618H65.5536C72.6692 57.3618 78.4373 51.5936 78.4373 44.4781C78.4373 37.3627 72.6692 31.5944 65.5536 31.5944C63.7681 31.5929 62.0019 31.9641 60.368 32.6841C60.2764 31.2134 59.9757 29.7633 59.4747 28.3775C59.4747 28.3775 57.4981 24.4197 55.5 22.5C53.5755 20.6511 49.7191 18.8557 49.7191 18.8557" stroke="#008000" stroke-width="2.5" stroke-miterlimit="10" stroke-linecap="round" stroke-linejoin="round"/>
<path d="M28.0358 57.3619L21.0361 64.3616" stroke="#008000" stroke-width="2.5" stroke-miterlimit="10" stroke-linecap="round" stroke-linejoin="round"/>
<path d="M44.3473 57.3619L37.3477 64.3616" stroke="#008000" stroke-width="2.5" stroke-miterlimit="10" stroke-linecap="round" stroke-linejoin="round"/>
<path d="M60.6593 57.3619L53.6597 64.3616" stroke="#008000" stroke-width="2.5" stroke-miterlimit="10" stroke-linecap="round" stroke-linejoin="round"/>
<path d="M27.4977 71.4378L20.498 78.4375" stroke="#008000" stroke-width="2.5" stroke-miterlimit="10" stroke-linecap="round" stroke-linejoin="round"/>
<path d="M43.8097 71.4378L36.8101 78.4375" stroke="#008000" stroke-width="2.5" stroke-miterlimit="10" stroke-linecap="round" stroke-linejoin="round"/>
<path d="M60.1217 71.4378L53.1221 78.4375" stroke="#008000" stroke-width="2.5" stroke-miterlimit="10" stroke-linecap="round" stroke-linejoin="round"/>
</g>
</g>
<defs>
<clipPath id="clip0_162_3596">
<rect width="80" height="80" fill="white"/>
</clipPath>
</defs>
</svg>
